<?xml version="1.0" encoding="UTF-8" standalone="no"?>
<!-- Generator: Adobe Illustrator 25.4.1, SVG Export Plug-In . SVG Version: 6.00 Build 0)  -->

<svg
   xmlns:dc="http://purl.org/dc/elements/1.1/"
   xmlns:cc="http://creativecommons.org/ns#"
   xmlns:rdf="http://www.w3.org/1999/02/22-rdf-syntax-ns#"
   xmlns:svg="http://www.w3.org/2000/svg"
   xmlns="http://www.w3.org/2000/svg"
   xmlns:sodipodi="http://sodipodi.sourceforge.net/DTD/sodipodi-0.dtd"
   xmlns:inkscape="http://www.inkscape.org/namespaces/inkscape"
   version="1.1"
   id="svg59"
   x="0px"
   y="0px"
   viewBox="0 0 660.80841 909.46301"
   xml:space="preserve"
   sodipodi:docname="yilan_card_head_only.svg"
   inkscape:version="0.92.3 (2405546, 2018-03-11)"
   width="660.80841"
   height="909.46301"><metadata
   id="metadata38"><rdf:RDF><cc:Work
       rdf:about=""><dc:format>image/svg+xml</dc:format><dc:type
         rdf:resource="http://purl.org/dc/dcmitype/StillImage" /><dc:title></dc:title></cc:Work></rdf:RDF></metadata><defs
   id="defs36" />
<style
   type="text/css"
   id="style2">
	.st0{display:none;}
	.st1{display:inline;fill:none;stroke:#000000;stroke-width:4;stroke-miterlimit:10;}
	.st2{display:inline;stroke:#000000;stroke-width:4;stroke-miterlimit:10;}
	.st3{fill:#FFFFFF;stroke:#000000;stroke-width:17.2604;stroke-miterlimit:34.5206;}
	.st4{fill:none;stroke:#000000;stroke-width:13.8083;stroke-miterlimit:34.5206;}
	.st5{fill:#FFFFFF;stroke:#000000;stroke-width:13.8083;stroke-miterlimit:34.5206;}
	.st6{stroke:#000000;stroke-width:13.8083;stroke-miterlimit:34.5206;}
	.st7{fill:#7C7C7C;stroke:#000000;stroke-width:13.8083;stroke-miterlimit:34.5206;}
	.st8{fill:none;stroke:#000000;stroke-width:6.904;stroke-miterlimit:34.5206;}
	.st9{stroke:#000000;stroke-width:6.904;stroke-miterlimit:34.5206;}
	.st10{fill:none;stroke:#FFFFFF;stroke-width:13.8083;stroke-miterlimit:34.5206;}
	.st11{fill:#FFFFFF;}
</style>
<sodipodi:namedview
   bordercolor="#666666"
   borderopacity="1"
   fit-margin-bottom="0"
   fit-margin-left="0"
   fit-margin-right="0"
   fit-margin-top="0"
   gridtolerance="10"
   guidetolerance="10"
   id="namedview61"
   inkscape:current-layer="svg59"
   inkscape:cx="168.29666"
   inkscape:cy="435.61548"
   inkscape:pageopacity="0"
   inkscape:pageshadow="2"
   inkscape:window-height="1137"
   inkscape:window-maximized="1"
   inkscape:window-width="1600"
   inkscape:window-x="-8"
   inkscape:window-y="-8"
   inkscape:zoom="0.65186406"
   objecttolerance="10"
   pagecolor="#ffffff"
   showgrid="false">
	</sodipodi:namedview>
<g
   id="g910"
   inkscape:export-xdpi="300.13461"
   inkscape:export-ydpi="300.13461"><ellipse
     ry="389.42371"
     rx="253.83051"
     cy="461.51651"
     cx="333.79385"
     id="path845"
     style="opacity:1;fill:#ffffff;fill-opacity:1;fill-rule:evenodd;stroke:none;stroke-width:69.31421661;stroke-miterlimit:4;stroke-dasharray:none;stroke-opacity:1" /><g
     transform="translate(4.0311361,3.1775508)"
     id="g33">
	<path
   d="M 74.3,570.3 C 37.7,570.3 4.4,537 4.6,500.6 c 0,-17.8 8,-36.4 23.2,-45.9 15,-9.5 37.5,-7.4 48.3,6.9 6.1,8.2 8,18.6 8.7,28.8 5.8,73.9 -32,152.2 -2.4,220.2 16.4,37.5 50.4,64.1 83.2,88.8 28.6,21.7 57.4,43.3 86,65 17.8,13.6 37.5,27.5 68.7,31.8 29.5,6.3 59.8,-9.1 81.9,-29.9 22.1,-20.8 38.6,-46.4 60,-67.8 22.5,-22.5 49.6,-39.4 73.4,-60.6 23.8,-21.2 44.6,-48.3 47.7,-79.9 2.4,-23.2 -5,-46.1 -10.2,-68.9 -5.2,-23 -8.4,-46.4 -9.1,-70.2 -0.9,-24.9 3.7,-54.6 26,-65.4 20.4,-9.8 47,3.9 55,25.1 8,21.2 -0.4,46.1 -16,62.4 -15.6,16.4 -37.9,25.1 -60,29.7"
   class="st3"
   inkscape:connector-curvature="0"
   id="path7"
   style="fill:#ffffff;stroke:#000000;stroke-width:17.26040077;stroke-miterlimit:34.52059937" />
	<path
   d="m 293,760.2 c 4.8,6.3 13.4,8.9 21.4,8.7 8,-0.2 15.6,-3.3 23.2,-6.1 5.9,-2.2 11.7,-4.5 17.7,-6.7"
   class="st4"
   inkscape:connector-curvature="0"
   id="path9"
   style="fill:none;stroke:#000000;stroke-width:13.80830002;stroke-miterlimit:34.52059937" />
	<path
   d="m 196.8,692.4 c 35.5,4.5 63.2,33.1 97.7,42.7 32.1,8.9 67.1,0 96.4,-15.6 29.4,-15.6 54.8,-37.7 81.8,-57.6"
   class="st4"
   inkscape:connector-curvature="0"
   id="path11"
   style="fill:none;stroke:#000000;stroke-width:13.80830002;stroke-miterlimit:34.52059937" />
	<path
   d="m 216.6,670.5 c -16.9,4.6 -30.8,19.3 -34.4,36.6"
   class="st4"
   inkscape:connector-curvature="0"
   id="path13"
   style="fill:none;stroke:#000000;stroke-width:13.80830002;stroke-miterlimit:34.52059937" />
	<path
   d="m 460.2,656.2 c 19,0.2 36,18 35.3,37.2"
   class="st4"
   inkscape:connector-curvature="0"
   id="path15"
   style="fill:none;stroke:#000000;stroke-width:13.80830002;stroke-miterlimit:34.52059937" />
	<path
   d="m 295.8,530 c 1.7,25.1 -4.8,50.7 -18.4,71.9 -1.5,2.4 -3.2,4.8 -3.3,7.4 -0.1,2.6 1.3,5.9 4.1,6.3 1.1,0.2 2.2,-0.2 3.5,-0.2 4.8,-0.6 9.3,2.8 12.1,6.9 2.8,3.9 4.5,8.7 6.9,12.8 10,16.4 36,19.7 50,6.3 5,-4.8 8.5,-11.3 14.9,-14.5 5,-2.4 11,-2.2 16.5,-3.5 5.5,-1.3 11.1,-5.8 10.6,-11.3 -0.4,-2.6 -1.9,-4.8 -3.3,-6.9 -16.2,-24.2 -23.8,-54.1 -21,-83.1"
   class="st4"
   inkscape:connector-curvature="0"
   id="path17"
   style="fill:none;stroke:#000000;stroke-width:13.80830002;stroke-miterlimit:34.52059937" />
	<path
   d="m 618.9,499 c -5.6,-8.5 -13.7,-18.4 -23.6,-16 -8.9,2.2 -12.4,14.5 -8,22.7 1.1,2 2.4,3.7 3.2,5.9 3.7,11.1 -12.8,22.7 -7.2,33.1 0.6,1.1 1.5,2.2 2.8,2.8 2.6,1.1 5.4,-0.6 7.6,-2.4 6.4,-5.8 11.4,-13.6 25.2,-46.1 z"
   class="st5"
   inkscape:connector-curvature="0"
   id="path19"
   style="fill:#ffffff;stroke:#000000;stroke-width:13.80830002;stroke-miterlimit:34.52059937" />
	<path
   d="M 72.3,494.9 C 60.2,489.1 58,469.1 44.8,467.2 c -9.1,-1.3 -16.4,7.4 -19.5,16 -1.7,4.6 -2.6,9.5 -1.5,14.1 2,8.5 10.4,14.1 13.2,22.3 1.9,5.4 1.1,11.5 3.2,16.9 3.5,9.1 15.8,13.4 24.3,8.5 8.4,-4.8 10.8,-17.8 4.6,-25.3 -2.6,-3.3 -6.7,-5.6 -8.5,-9.5 -3.2,-6.4 2.6,-15.5 11.7,-15.3 z"
   class="st5"
   inkscape:connector-curvature="0"
   id="path21"
   style="fill:#ffffff;stroke:#000000;stroke-width:13.80830002;stroke-miterlimit:34.52059937" />
	<path
   d="m 301.5,464.8 c 4.1,-25.6 -12.3,-53 -36.8,-61.3 -10.4,-3.5 -21.6,-3.9 -32.3,-3.9 -8.7,0 -17.7,0.2 -26,2.4 -26.4,6.9 -45.5,34.6 -43.8,61.9 1.5,27.3 22.5,52 48.7,59.6 26.4,7.6 56.3,-1.7 75.1,-21.6 12.9,-14.1 20.9,-34.3 15.1,-37.1 z"
   class="st4"
   inkscape:connector-curvature="0"
   id="path23"
   style="fill:none;stroke:#000000;stroke-width:13.80830002;stroke-miterlimit:34.52059937" />
	<path
   d="m 365.1,461.6 c 0.2,15.4 0.7,32.1 10.8,43.7 8.9,10.4 23.4,13.9 37,16.2 17.3,2.8 35.3,4.3 52,-0.7 16.7,-5 32.1,-17.5 36.6,-34.4 1.5,-6.3 1.7,-12.8 0.9,-19.1 -2.8,-24.3 -17.3,-47.6 -38.8,-59.5 -21.6,-11.9 -49.6,-11.5 -70.2,1.7 -20.7,13.1 -28.3,38.9 -28.3,52.1 z"
   class="st4"
   inkscape:connector-curvature="0"
   id="path25"
   style="fill:none;stroke:#000000;stroke-width:13.80830002;stroke-miterlimit:34.52059937" />
	<path
   d="m 499.4,462.7 c 22.3,-2.6 44.8,-1.7 66.9,2.4 1.3,0.2 2.8,0.7 2.8,2 0,1.3 -2.6,0.4 -1.5,-0.2"
   class="st4"
   inkscape:connector-curvature="0"
   id="path27"
   style="fill:none;stroke:#000000;stroke-width:13.80830002;stroke-miterlimit:34.52059937" />
	<path
   d="m 164.4,460 c -27.7,-5.9 -59.6,-7.4 -80.8,11.3"
   class="st4"
   inkscape:connector-curvature="0"
   id="path29"
   style="fill:none;stroke:#000000;stroke-width:13.80830002;stroke-miterlimit:34.52059937" />
	<path
   d="m 376.2,380.6 c 2.6,5.6 5.2,11.1 8,16.7 25.1,-19.9 59.6,-27.3 90.9,-19.7 -6.5,-10.6 -19.1,-16 -31.6,-16.7 -12.4,-0.7 -24.5,2.8 -36.4,6.5 -12.1,3.7 -24.9,8.4 -30.9,13.2 z"
   class="st6"
   inkscape:connector-curvature="0"
   id="path31"
   style="stroke:#000000;stroke-width:13.80830002;stroke-miterlimit:34.52059937" />
	<path
   d="m 293.6,379.9 c -3.2,4.6 -6.1,9.3 -9.3,13.9 -26.8,-14.9 -59.5,-18.6 -89,-8 12.3,-13.6 30.1,-21.9 48.5,-22.3 18.2,-0.3 36.4,7.1 49.8,16.4 z"
   class="st6"
   inkscape:connector-curvature="0"
   id="path33"
   style="stroke:#000000;stroke-width:13.80830002;stroke-miterlimit:34.52059937" />
	<path
   d="M 314.9,20 C 278.3,-3.6 229.4,9 190.8,29.5 107,73.7 40.1,154.5 25.8,248.2 c 2.8,-10 9.7,-19 18.6,-24.2 -20.1,74.3 -19,154 1.9,227.8 11,-1.3 22.3,0.9 30.1,6.1 1.5,-57.6 19.7,-113.5 37.7,-168.3 8.2,-24.7 17.3,-50.9 38.1,-66.5 -0.2,8.4 -2.8,16.5 -7.4,23.4 25.6,-31.4 56.9,-58.2 91.8,-78.8 4.6,9.7 2.6,22.5 -5,30.1 22.5,-23.8 52,-41.1 83.8,-48.9 2,6.3 2,13.4 0,19.7 12.4,-14.7 32.1,-22.7 51.1,-19.9 14.5,5 27.5,14.5 36.8,26.8 13.4,-10.2 32.1,-6.1 48.3,-1.5 1.7,-6.7 4.6,-13 9.1,-18.4 7.4,8.2 14.7,16.5 22.1,24.9 3.7,-3.9 7.6,-8 11.5,-11.9 2.2,-2.4 5,-4.8 8.2,-4.6 3.2,0.2 5.6,5.2 4.1,7.6 7.6,28.1 29.7,50 40.5,76.9 6.7,16.9 8.9,35.1 11.1,53.1 6.1,52 12.3,104 18.4,156.3 7.1,-5.2 15.6,-8.2 24.2,-8.7 5.9,-52.2 11.9,-104.2 17.8,-156.4 0.2,-1.9 0.7,-4.1 2.6,-4.5 1.9,-0.4 2,3.5 0.4,2.8 -2.6,-27.3 -5.4,-54.8 -8,-82.1 5.9,3.3 11.1,8.2 14.5,14.1 C 620.3,181.7 608,140.4 586.3,104.4 564.6,68.2 532.4,37.1 493,22.3 472.6,14.5 450.6,11.3 428.9,8.2 389.3,2.6 345.8,-1.5 312.8,21 c -0.1,4.7 -0.1,9.6 2.1,-1 z"
   class="st7"
   inkscape:connector-curvature="0"
   id="path35"
   style="fill:#7c7c7c;stroke:#000000;stroke-width:13.80830002;stroke-miterlimit:34.52059937" />
	<path
   d="m 477.9,460 c -13.6,-7.2 -27.7,-14.7 -43.1,-15.8 -15.2,-1.1 -32.1,5.9 -38.8,18.6 10.6,11.3 27.1,15 42,12.6 15,-2.4 28.7,-10.2 39.9,-15.4 z"
   class="st8"
   inkscape:connector-curvature="0"
   id="path37"
   style="fill:none;stroke:#000000;stroke-width:6.90399981;stroke-miterlimit:34.52059937" />
	<path
   d="m 434.4,447.1 c -6.9,-1.7 -14.9,1.1 -18.4,7.2 -3.7,5.9 -2,14.9 3.9,18.8 3.7,2.4 8.5,2.6 13,2.4 5.8,-0.2 12.3,-0.9 16.2,-5.2 1.7,-1.9 2.8,-4.5 3.2,-7.1 0.9,-6.5 -2.4,-13.6 -8.4,-16.7 -6,-3.3 -13.8,-2.3 -9.5,0.6 z"
   class="st9"
   inkscape:connector-curvature="0"
   id="path39"
   style="stroke:#000000;stroke-width:6.90399981;stroke-miterlimit:34.52059937" />
	<path
   d="m 241,442.3 c -8,0 -16,4.5 -19.1,11.9 -3,7.4 0,17.1 7.2,20.3 4.1,1.9 8.7,1.5 13.2,1.1 5.2,-0.6 10.8,-1.5 14.5,-5 5.6,-5.4 4.6,-15.4 -0.7,-21 -5.3,-5.8 -13.8,-7.7 -15.1,-7.3 z"
   class="st9"
   inkscape:connector-curvature="0"
   id="path41"
   style="stroke:#000000;stroke-width:6.90399981;stroke-miterlimit:34.52059937" />
	<path
   d="m 195.3,464.4 c 10.8,-5.8 20.1,-15.2 31.4,-19.7 17.5,-7.1 38.5,-0.2 50,14.9 -10.4,11.3 -25.3,17.7 -39.9,16.7 -14.8,-0.9 -28.9,-8.9 -41.5,-11.9 z"
   class="st8"
   inkscape:connector-curvature="0"
   id="path43"
   style="fill:none;stroke:#000000;stroke-width:6.90399981;stroke-miterlimit:34.52059937" />
	<path
   d="m 432.9,460.1 c -0.9,-1.3 -3.3,0.4 -2.6,1.9 0.7,1.5 3.2,1.1 3.7,-0.4 0.5,-1.5 -0.6,-3.2 -2,-3.7 -1.9,1.3 -0.7,4.8 1.5,4.8 0.5,-1.1 -1,-2.4 -0.6,-2.6 z"
   class="st10"
   inkscape:connector-curvature="0"
   id="path45"
   style="fill:none;stroke:#ffffff;stroke-width:13.80830002;stroke-miterlimit:34.52059937" />
	<path
   d="m 241.7,460.5 c -0.4,-0.7 -1.5,-1.1 -2,-0.4 -0.6,0.7 0.6,1.9 1.1,1.1 0.6,-0.6 -0.9,-1.5 -0.9,-0.7 0,0.9 1.5,1.1 1.9,0.4 0.3,-0.6 -0.8,-1.7 -0.1,-0.4 z"
   class="st5"
   inkscape:connector-curvature="0"
   id="path47"
   style="fill:#ffffff;stroke:#000000;stroke-width:13.80830002;stroke-miterlimit:34.52059937" />
	<path
   d="m 241.7,458.3 c -1.1,-0.9 -3,0.2 -2.8,1.7 0.2,1.3 2.2,1.9 3.2,0.9 -0.2,-0.9 -1.1,-1.5 -1.9,-1.3 -0.6,0.2 -0.6,1.1 -0.2,1.5 0.4,0.4 1.1,0 1.3,-0.6 -0.7,-0.5 -1.2,-0.9 0.4,-2.2 z"
   class="st10"
   inkscape:connector-curvature="0"
   id="path49"
   style="fill:none;stroke:#ffffff;stroke-width:13.80830002;stroke-miterlimit:34.52059937" />
	<path
   d="m 305.1,462.2 c 20.3,-5 42.2,-3.7 61.9,3.7"
   class="st4"
   inkscape:connector-curvature="0"
   id="path51"
   style="fill:none;stroke:#000000;stroke-width:13.80830002;stroke-miterlimit:34.52059937" />
	<circle
   r="9"
   cy="460"
   cx="432.5"
   class="st11"
   id="path842-0"
   style="fill:#ffffff" />
	<circle
   r="9"
   cy="459.5"
   cx="240.8"
   class="st11"
   id="path842"
   style="fill:#ffffff" />
</g></g><g
   id="NeckBody"
   transform="translate(-143.12887,-99.476074)"
   class="st0"
   style="display:none">
	<path
   id="path54"
   inkscape:connector-curvature="0"
   class="st1"
   d="m 461.6,602.5 c 0.6,15.4 1.1,30.7 1.7,46.1 0.1,2.6 0.2,5.3 0.9,7.8 0.7,2.7 2,5.1 3.3,7.6 3.9,7.4 8,15 14.2,20.7 9.3,8.5 22.7,11.7 35.2,10.1 12.5,-1.6 24.1,-7.7 34,-15.5 4.6,-3.7 9,-8 11.2,-13.5 3.4,-8.9 0.3,-18.8 -2,-28 -2.3,-9.2 -3.1,-20.3 3.5,-27.1"
   style="display:inline;fill:none;stroke:#000000;stroke-width:4;stroke-miterlimit:10" />
	<path
   id="path56"
   inkscape:connector-curvature="0"
   class="st2"
   d="m 463.4,632.5 c -28.9,15.1 -52.7,38.1 -76,60.8 -7.8,7.6 -16.4,18.4 -11.6,28.3 1.3,2.8 3.6,5.1 4,8.2 0.4,3 -1.1,6.3 0.2,9 2.1,4.2 9.9,4 10.7,8.7 0.3,1.8 -0.7,3.5 -0.5,5.3 0.4,4 6,5.2 9.9,4 3.9,-1.1 8,-3.3 11.8,-2 -3.4,2.9 -6.3,6.3 -8.6,10.1 7.8,3.8 16.8,5.2 25.4,4 4.3,-0.6 9.5,-1.7 12.4,1.5 1.9,2.1 2.2,5.4 4.2,7.4 4,4.1 11.4,0.3 16.7,2.7 6.1,2.6 6.1,11.1 5.1,17.7 6.2,-0.4 12.5,-0.8 18.7,-1.2 2.1,5 1.2,11.1 -2.1,15.3 5.6,0.4 11.2,-0.9 16.1,-3.6 -2.1,6.8 -4.1,14.4 -0.6,20.6 3.5,6.2 15,6.7 16.3,-0.2 4.2,6.3 10.3,13.5 17.8,12.1 2.3,-0.4 4.4,-1.7 6.4,-2.9 5.4,-3.3 10.8,-6.6 16.2,-9.9 4.9,-3 10.3,-6.1 16.1,-5.6 -3.2,-2.5 -4,-7.5 -1.7,-10.9 2.3,-3.3 7.3,-4.4 10.7,-2.4 -1.3,-5.7 -2.5,-11.5 -3.8,-17.2 6,1.1 12.4,2.1 17.9,-0.4 5.5,-2.5 9.3,-9.9 5.8,-14.8 3.9,1.2 8,2.4 12,1.7 4,-0.7 7.9,-3.9 8,-8 0,-2.4 -1.2,-4.8 -0.6,-7.1 2.1,-7.5 18.8,-2.2 19,-10.1 0,-2.1 -1.5,-3.8 -2.3,-5.8 -2.6,-5.9 3.2,-13.6 9.5,-12.8 -2.7,-2.6 -5.3,-5.3 -8,-7.9 6.5,-1.8 13.4,-4.1 17.2,-9.6 3.8,-5.5 1.6,-15.2 -5.1,-15.9 1.5,-7 14.2,-5 16.8,-11.6 1.5,-3.7 -1.6,-8 -5.3,-9.5 -3.7,-1.5 -7.9,-1.3 -11.9,-1.6 -17,-1.5 -30.8,-13.8 -44.2,-24.4 -13.4,-10.6 -29.9,-20.7 -47.7,-17.2 4.8,9.6 5.6,21.5 0.9,31.2 -4.3,8.9 -12.7,15.3 -21.4,19.9 -14.2,7.5 -31.8,11 -46.1,3.8 -9.6,-4.9 -16.5,-14.1 -20.7,-24.1 -4.2,-10 -5.9,-20.8 -7.6,-31.4 -0.4,-2.2 -2.1,-5.3 0,-4.2 z"
   style="display:inline;stroke:#000000;stroke-width:4;stroke-miterlimit:10" />
</g>

</svg>