<?xml version="1.0" encoding="utf-8"?>
<!-- Generator: Adobe Illustrator 25.4.1, SVG Export Plug-In . SVG Version: 6.00 Build 0)  -->
<svg version="1.1"
	 id="svg59" inkscape:version="0.92.3 (2405546, 2018-03-11)" sodipodi:docname="yilan_card_head_shoulder.svg" xmlns:cc="http://creativecommons.org/ns#" xmlns:dc="http://purl.org/dc/elements/1.1/" xmlns:inkscape="http://www.inkscape.org/namespaces/inkscape" xmlns:rdf="http://www.w3.org/1999/02/22-rdf-syntax-ns#" xmlns:sodipodi="http://sodipodi.sourceforge.net/DTD/sodipodi-0.dtd" xmlns:svg="http://www.w3.org/2000/svg"
	 xmlns="http://www.w3.org/2000/svg" xmlns:xlink="http://www.w3.org/1999/xlink" x="0px" y="0px" viewBox="0 0 351.4 697"
	 style="enable-background:new 0 0 351.4 697;" xml:space="preserve">
<style type="text/css">
	.st0{fill:none;stroke:#000000;stroke-width:5;stroke-miterlimit:10;}
	.st1{fill:none;stroke:#000000;stroke-width:4;stroke-miterlimit:10;}
	.st2{stroke:#000000;stroke-width:4;stroke-miterlimit:10;}
	.st3{fill:none;stroke:#000000;stroke-width:2;stroke-miterlimit:10;}
	.st4{stroke:#000000;stroke-width:2;stroke-miterlimit:10;}
	.st5{fill:none;stroke:#FFFFFF;stroke-width:4;stroke-miterlimit:10;}
	.st6{fill:#FFFFFF;stroke:#000000;stroke-width:4;stroke-miterlimit:10;}
</style>
<sodipodi:namedview  bordercolor="#666666" borderopacity="1" fit-margin-bottom="0" fit-margin-left="0" fit-margin-right="0" fit-margin-top="0" gridtolerance="10" guidetolerance="10" id="namedview61" inkscape:current-layer="svg59" inkscape:cx="168.70021" inkscape:cy="331.06541" inkscape:pageopacity="0" inkscape:pageshadow="2" inkscape:window-height="1137" inkscape:window-maximized="1" inkscape:window-width="1600" inkscape:window-x="-8" inkscape:window-y="-8" inkscape:zoom="0.23046875" objecttolerance="10" pagecolor="#ffffff" showgrid="false">
	</sodipodi:namedview>
<g id="Face" transform="translate(-343.29979,-146.04344)">
	<path id="path7" inkscape:connector-curvature="0" class="st0" d="M383.3,453c-19.7,0-37.6-17.9-37.5-37.5
		c0-9.6,4.3-19.6,12.5-24.7c8.1-5.1,20.2-4,26,3.7c3.3,4.4,4.3,10,4.7,15.5c3.1,39.8-17.2,81.9-1.3,118.5
		c8.8,20.2,27.1,34.5,44.8,47.8c15.4,11.7,30.9,23.3,46.3,35c9.6,7.3,20.2,14.8,37,17.1c15.9,3.4,32.2-4.9,44.1-16.1
		s20.8-25,32.3-36.5c12.1-12.1,26.7-21.2,39.5-32.6s24-26,25.7-43c1.3-12.5-2.7-24.8-5.5-37.1c-2.8-12.4-4.5-25-4.9-37.8
		c-0.5-13.4,2-29.4,14-35.2c11-5.3,25.3,2.1,29.6,13.5c4.3,11.4-0.2,24.8-8.6,33.6s-20.4,13.5-32.3,16"/>
	<path id="path9" inkscape:connector-curvature="0" class="st1" d="M501,555.2c2.6,3.4,7.2,4.8,11.5,4.7s8.4-1.8,12.5-3.3
		c3.2-1.2,6.3-2.4,9.5-3.6"/>
	<path id="path11" inkscape:connector-curvature="0" class="st1" d="M449.2,518.7c19.1,2.4,34,17.8,52.6,23
		c17.3,4.8,36.1,0,51.9-8.4s29.5-20.3,44-31"/>
	<path id="path13" inkscape:connector-curvature="0" class="st1" d="M459.9,506.9c-9.1,2.5-16.6,10.4-18.5,19.7"/>
	<path id="path15" inkscape:connector-curvature="0" class="st1" d="M591,499.2c10.2,0.1,19.4,9.7,19,20"/>
	<path id="path17" inkscape:connector-curvature="0" class="st1" d="M502.5,431.3c0.9,13.5-2.6,27.3-9.9,38.7
		c-0.8,1.3-1.7,2.6-1.8,4s0.7,3.2,2.2,3.4c0.6,0.1,1.2-0.1,1.9-0.1c2.6-0.3,5,1.5,6.5,3.7c1.5,2.1,2.4,4.7,3.7,6.9
		c5.4,8.8,19.4,10.6,26.9,3.4c2.7-2.6,4.6-6.1,8-7.8c2.7-1.3,5.9-1.2,8.9-1.9s6-3.1,5.7-6.1c-0.2-1.4-1-2.6-1.8-3.7
		c-8.7-13-12.8-29.1-11.3-44.7"/>
	<path id="path19" inkscape:connector-curvature="0" class="st1" d="M676.4,414.6c-3-4.6-7.4-9.9-12.7-8.6
		c-4.8,1.2-6.7,7.8-4.3,12.2c0.6,1.1,1.3,2,1.7,3.2c2,6-6.9,12.2-3.9,17.8c0.3,0.6,0.8,1.2,1.5,1.5c1.4,0.6,2.9-0.3,4.1-1.3
		C666.3,436.3,669,432.1,676.4,414.6L676.4,414.6z"/>
	<path id="path21" inkscape:connector-curvature="0" class="st1" d="M382.2,412.4c-6.5-3.1-7.7-13.9-14.8-14.9
		c-4.9-0.7-8.8,4-10.5,8.6c-0.9,2.5-1.4,5.1-0.8,7.6c1.1,4.6,5.6,7.6,7.1,12c1,2.9,0.6,6.2,1.7,9.1c1.9,4.9,8.5,7.2,13.1,4.6
		c4.5-2.6,5.8-9.6,2.5-13.6c-1.4-1.8-3.6-3-4.6-5.1C374.2,417.2,377.3,412.3,382.2,412.4L382.2,412.4z"/>
	<path id="path23" inkscape:connector-curvature="0" class="st1" d="M505.6,396.2c2.2-13.8-6.6-28.5-19.8-33
		c-5.6-1.9-11.6-2.1-17.4-2.1c-4.7,0-9.5,0.1-14,1.3c-14.2,3.7-24.5,18.6-23.6,33.3c0.8,14.7,12.1,28,26.2,32.1
		c14.2,4.1,30.3-0.9,40.4-11.6C504.4,408.6,508.7,397.7,505.6,396.2L505.6,396.2z"/>
	<path id="path25" inkscape:connector-curvature="0" class="st1" d="M539.8,394.5c0.1,8.3,0.4,17.3,5.8,23.5
		c4.8,5.6,12.6,7.5,19.9,8.7c9.3,1.5,19,2.3,28-0.4c9-2.7,17.3-9.4,19.7-18.5c0.8-3.4,0.9-6.9,0.5-10.3c-1.5-13.1-9.3-25.6-20.9-32
		c-11.6-6.4-26.7-6.2-37.8,0.9S539.8,387.4,539.8,394.5L539.8,394.5z"/>
	<path id="path27" inkscape:connector-curvature="0" class="st1" d="M612.1,395.1c12-1.4,24.1-0.9,36,1.3c0.7,0.1,1.5,0.4,1.5,1.1
		s-1.4,0.2-0.8-0.1"/>
	<path id="path29" inkscape:connector-curvature="0" class="st1" d="M431.8,393.6c-14.9-3.2-32.1-4-43.5,6.1"/>
	<path id="path31" inkscape:connector-curvature="0" class="st2" d="M545.8,350.9c1.4,3,2.8,6,4.3,9c13.5-10.7,32.1-14.7,48.9-10.6
		c-3.5-5.7-10.3-8.6-17-9s-13.2,1.5-19.6,3.5C555.9,345.8,549,348.3,545.8,350.9L545.8,350.9z"/>
	<path id="path33" inkscape:connector-curvature="0" class="st2" d="M501.3,350.5c-1.7,2.5-3.3,5-5,7.5c-14.4-8-32-10-47.9-4.3
		c6.6-7.3,16.2-11.8,26.1-12C484.3,341.5,494.1,345.5,501.3,350.5z"/>
	<path id="path35" inkscape:connector-curvature="0" class="st2" d="M512.8,156.8c-19.7-12.7-46-5.9-66.8,5.1
		c-45.1,23.8-81.1,67.3-88.8,117.7c1.5-5.4,5.2-10.2,10-13c-10.8,40-10.2,82.9,1,122.6c5.9-0.7,12,0.5,16.2,3.3
		c0.8-31,10.6-61.1,20.3-90.6c4.4-13.3,9.3-27.4,20.5-35.8c-0.1,4.5-1.5,8.9-4,12.6c13.8-16.9,30.6-31.3,49.4-42.4
		c2.5,5.2,1.4,12.1-2.7,16.2c12.1-12.8,28-22.1,45.1-26.3c1.1,3.4,1.1,7.2,0,10.6c6.7-7.9,17.3-12.2,27.5-10.7
		c7.8,2.7,14.8,7.8,19.8,14.4c7.2-5.5,17.3-3.3,26-0.8c0.9-3.6,2.5-7,4.9-9.9c4,4.4,7.9,8.9,11.9,13.4c2-2.1,4.1-4.3,6.2-6.4
		c1.2-1.3,2.7-2.6,4.4-2.5s3,2.8,2.2,4.1c4.1,15.1,16,26.9,21.8,41.4c3.6,9.1,4.8,18.9,6,28.6c3.3,28,6.6,56,9.9,84.1
		c3.8-2.8,8.4-4.4,13-4.7c3.2-28.1,6.4-56.1,9.6-84.2c0.1-1,0.4-2.2,1.4-2.4c1-0.2,1.1,1.9,0.2,1.5c-1.4-14.7-2.9-29.5-4.3-44.2
		c3.2,1.8,6,4.4,7.8,7.6c-4.2-22.3-10.8-44.5-22.5-63.9c-11.7-19.5-29-36.2-50.2-44.2c-11-4.2-22.8-5.9-34.5-7.6
		c-21.3-3-44.7-5.2-62.5,6.9C511.6,159.9,511.6,162.5,512.8,156.8L512.8,156.8z"/>
	<path id="path37" inkscape:connector-curvature="0" class="st3" d="M600.5,393.6c-7.3-3.9-14.9-7.9-23.2-8.5
		c-8.2-0.6-17.3,3.2-20.9,10c5.7,6.1,14.6,8.1,22.6,6.8C587.1,400.6,594.5,396.4,600.5,393.6z"/>
	<path id="path39" inkscape:connector-curvature="0" class="st4" d="M577.1,386.7c-3.7-0.9-8,0.6-9.9,3.9c-2,3.2-1.1,8,2.1,10.1
		c2,1.3,4.6,1.4,7,1.3c3.1-0.1,6.6-0.5,8.7-2.8c0.9-1,1.5-2.4,1.7-3.8c0.5-3.5-1.3-7.3-4.5-9C579,384.6,574.8,385.1,577.1,386.7
		L577.1,386.7z"/>
	<path id="path41" inkscape:connector-curvature="0" class="st4" d="M473,384.1c-4.3,0-8.6,2.4-10.3,6.4c-1.6,4,0,9.2,3.9,10.9
		c2.2,1,4.7,0.8,7.1,0.6c2.8-0.3,5.8-0.8,7.8-2.7c3-2.9,2.5-8.3-0.4-11.3C478.3,384.9,473.7,383.9,473,384.1L473,384.1z"/>
	<path id="path43" inkscape:connector-curvature="0" class="st3" d="M448.4,396c5.8-3.1,10.8-8.2,16.9-10.6c9.4-3.8,20.7-0.1,26.9,8
		c-5.6,6.1-13.6,9.5-21.5,9C462.8,401.9,455.2,397.6,448.4,396z"/>
	<path id="path45" inkscape:connector-curvature="0" class="st5" d="M576.3,393.7c-0.5-0.7-1.8,0.2-1.4,1s1.7,0.6,2-0.2
		s-0.3-1.7-1.1-2c-1,0.7-0.4,2.6,0.8,2.6C576.9,394.5,576.1,393.8,576.3,393.7L576.3,393.7z"/>
	<path id="path47" inkscape:connector-curvature="0" class="st6" d="M473.4,393.9c-0.2-0.4-0.8-0.6-1.1-0.2s0.3,1,0.6,0.6
		c0.3-0.3-0.5-0.8-0.5-0.4c0,0.5,0.8,0.6,1,0.2C473.6,393.8,473,393.2,473.4,393.9z"/>
	<path id="path49" inkscape:connector-curvature="0" class="st5" d="M473.4,392.7c-0.6-0.5-1.6,0.1-1.5,0.9c0.1,0.7,1.2,1,1.7,0.5
		c-0.1-0.5-0.6-0.8-1-0.7c-0.3,0.1-0.3,0.6-0.1,0.8s0.6,0,0.7-0.3C472.8,393.6,472.5,393.4,473.4,392.7z"/>
	<path id="path51" inkscape:connector-curvature="0" class="st1" d="M507.5,394.8c10.9-2.7,22.7-2,33.3,2"/>
</g>
<g id="NeckBody" transform="translate(-343.29979,-146.04344)">
	<path id="path54" inkscape:connector-curvature="0" class="st1" d="M461.6,602.5c0.6,15.4,1.1,30.7,1.7,46.1
		c0.1,2.6,0.2,5.3,0.9,7.8c0.7,2.7,2,5.1,3.3,7.6c3.9,7.4,8,15,14.2,20.7c9.3,8.5,22.7,11.7,35.2,10.1c12.5-1.6,24.1-7.7,34-15.5
		c4.6-3.7,9-8,11.2-13.5c3.4-8.9,0.3-18.8-2-28s-3.1-20.3,3.5-27.1"/>
	<path id="path56" inkscape:connector-curvature="0" class="st2" d="M463.4,632.5c-28.9,15.1-52.7,38.1-76,60.8
		c-7.8,7.6-16.4,18.4-11.6,28.3c1.3,2.8,3.6,5.1,4,8.2c0.4,3-1.1,6.3,0.2,9c2.1,4.2,9.9,4,10.7,8.7c0.3,1.8-0.7,3.5-0.5,5.3
		c0.4,4,6,5.2,9.9,4c3.9-1.1,8-3.3,11.8-2c-3.4,2.9-6.3,6.3-8.6,10.1c7.8,3.8,16.8,5.2,25.4,4c4.3-0.6,9.5-1.7,12.4,1.5
		c1.9,2.1,2.2,5.4,4.2,7.4c4,4.1,11.4,0.3,16.7,2.7c6.1,2.6,6.1,11.1,5.1,17.7c6.2-0.4,12.5-0.8,18.7-1.2c2.1,5,1.2,11.1-2.1,15.3
		c5.6,0.4,11.2-0.9,16.1-3.6c-2.1,6.8-4.1,14.4-0.6,20.6s15,6.7,16.3-0.2c4.2,6.3,10.3,13.5,17.8,12.1c2.3-0.4,4.4-1.7,6.4-2.9
		c5.4-3.3,10.8-6.6,16.2-9.9c4.9-3,10.3-6.1,16.1-5.6c-3.2-2.5-4-7.5-1.7-10.9c2.3-3.3,7.3-4.4,10.7-2.4c-1.3-5.7-2.5-11.5-3.8-17.2
		c6,1.1,12.4,2.1,17.9-0.4c5.5-2.5,9.3-9.9,5.8-14.8c3.9,1.2,8,2.4,12,1.7c4-0.7,7.9-3.9,8-8c0-2.4-1.2-4.8-0.6-7.1
		c2.1-7.5,18.8-2.2,19-10.1c0-2.1-1.5-3.8-2.3-5.8c-2.6-5.9,3.2-13.6,9.5-12.8c-2.7-2.6-5.3-5.3-8-7.9c6.5-1.8,13.4-4.1,17.2-9.6
		s1.6-15.2-5.1-15.9c1.5-7,14.2-5,16.8-11.6c1.5-3.7-1.6-8-5.3-9.5c-3.7-1.5-7.9-1.3-11.9-1.6c-17-1.5-30.8-13.8-44.2-24.4
		s-29.9-20.7-47.7-17.2c4.8,9.6,5.6,21.5,0.9,31.2c-4.3,8.9-12.7,15.3-21.4,19.9c-14.2,7.5-31.8,11-46.1,3.8
		c-9.6-4.9-16.5-14.1-20.7-24.1c-4.2-10-5.9-20.8-7.6-31.4C463,634.5,461.3,631.4,463.4,632.5L463.4,632.5z"/>
</g>
</svg>
